<mxfile host="app.diagrams.net" modified="2024-01-25T07:20:43.891Z" agent="Mozilla/5.0 (Windows NT 10.0; Win64; x64) AppleWebKit/537.36 (KHTML, like Gecko) Chrome/120.0.0.0 Safari/537.36" etag="Kk5Vg87D1cpBZ0yIWwE9" version="23.0.1" type="google">
  <diagram name="Page-1" id="2sjKvOkVcHl7aefKJoEn">
    <mxGraphModel grid="1" page="1" gridSize="10" guides="1" tooltips="1" connect="1" arrows="1" fold="1" pageScale="1" pageWidth="850" pageHeight="1100" math="0" shadow="0">
      <root>
        <mxCell id="0" />
        <mxCell id="1" parent="0" />
        <mxCell id="3n1f7qn3-GTYBAj43Xyj-42" value="" style="rounded=0;whiteSpace=wrap;html=1;" vertex="1" parent="1">
          <mxGeometry x="-160" y="280" width="680" height="680" as="geometry" />
        </mxCell>
        <mxCell id="3n1f7qn3-GTYBAj43Xyj-5" style="edgeStyle=orthogonalEdgeStyle;orthogonalLoop=1;jettySize=auto;html=1;curved=1;endArrow=block;endFill=1;entryX=0;entryY=0.5;entryDx=0;entryDy=0;" edge="1" parent="1" source="3n1f7qn3-GTYBAj43Xyj-24" target="3n1f7qn3-GTYBAj43Xyj-25">
          <mxGeometry relative="1" as="geometry">
            <mxPoint x="20" y="480" as="sourcePoint" />
            <mxPoint x="195" y="585" as="targetPoint" />
          </mxGeometry>
        </mxCell>
        <mxCell id="3n1f7qn3-GTYBAj43Xyj-32" value="Order Confirmation / Account updates" style="edgeLabel;html=1;align=center;verticalAlign=middle;resizable=0;points=[];" connectable="0" vertex="1" parent="3n1f7qn3-GTYBAj43Xyj-5">
          <mxGeometry x="0.038" y="-4" relative="1" as="geometry">
            <mxPoint x="1" as="offset" />
          </mxGeometry>
        </mxCell>
        <mxCell id="3n1f7qn3-GTYBAj43Xyj-24" value="Metromensa" style="shape=ellipse;html=1;dashed=0;whitespace=wrap;aspect=fixed;perimeter=ellipsePerimeter;fillColor=#e1d5e7;strokeColor=#9673a6;" vertex="1" parent="1">
          <mxGeometry x="160" y="620" width="80" height="80" as="geometry" />
        </mxCell>
        <mxCell id="3n1f7qn3-GTYBAj43Xyj-25" value="&lt;b&gt;User&lt;br&gt;(students and staff)&lt;/b&gt;" style="html=1;dashed=0;whitespace=wrap;fillColor=#ffe6cc;strokeColor=#d79b00;" vertex="1" parent="1">
          <mxGeometry x="110" y="390" width="120" height="60" as="geometry" />
        </mxCell>
        <mxCell id="3n1f7qn3-GTYBAj43Xyj-26" value="&lt;b&gt;University Systems&lt;/b&gt;" style="html=1;dashed=0;whitespace=wrap;fillColor=#ffe6cc;strokeColor=#d79b00;" vertex="1" parent="1">
          <mxGeometry x="310" y="840" width="120" height="60" as="geometry" />
        </mxCell>
        <mxCell id="3n1f7qn3-GTYBAj43Xyj-30" style="edgeStyle=orthogonalEdgeStyle;orthogonalLoop=1;jettySize=auto;html=1;curved=1;endArrow=block;endFill=1;entryX=1;entryY=0;entryDx=0;entryDy=0;exitX=1;exitY=0.75;exitDx=0;exitDy=0;" edge="1" parent="1" source="3n1f7qn3-GTYBAj43Xyj-25" target="3n1f7qn3-GTYBAj43Xyj-24">
          <mxGeometry relative="1" as="geometry">
            <mxPoint x="360" y="630" as="sourcePoint" />
            <mxPoint x="270" y="430" as="targetPoint" />
          </mxGeometry>
        </mxCell>
        <mxCell id="3n1f7qn3-GTYBAj43Xyj-31" value="Place order / manage account" style="edgeLabel;html=1;align=center;verticalAlign=middle;resizable=0;points=[];" connectable="0" vertex="1" parent="3n1f7qn3-GTYBAj43Xyj-30">
          <mxGeometry x="-0.4188" y="-2" relative="1" as="geometry">
            <mxPoint as="offset" />
          </mxGeometry>
        </mxCell>
        <mxCell id="3n1f7qn3-GTYBAj43Xyj-33" value="&lt;b&gt;Payment gateway&lt;/b&gt;" style="html=1;dashed=0;whitespace=wrap;fillColor=#ffe6cc;strokeColor=#d79b00;" vertex="1" parent="1">
          <mxGeometry x="-10" y="800" width="120" height="60" as="geometry" />
        </mxCell>
        <mxCell id="3n1f7qn3-GTYBAj43Xyj-34" style="edgeStyle=orthogonalEdgeStyle;orthogonalLoop=1;jettySize=auto;html=1;curved=1;endArrow=block;endFill=1;entryX=0.159;entryY=-0.046;entryDx=0;entryDy=0;exitX=0;exitY=0.5;exitDx=0;exitDy=0;entryPerimeter=0;" edge="1" parent="1" source="3n1f7qn3-GTYBAj43Xyj-24" target="3n1f7qn3-GTYBAj43Xyj-33">
          <mxGeometry relative="1" as="geometry">
            <mxPoint x="-79" y="580" as="sourcePoint" />
            <mxPoint x="-80" y="777" as="targetPoint" />
          </mxGeometry>
        </mxCell>
        <mxCell id="3n1f7qn3-GTYBAj43Xyj-35" value="Payment Transactions" style="edgeLabel;html=1;align=center;verticalAlign=middle;resizable=0;points=[];" connectable="0" vertex="1" parent="3n1f7qn3-GTYBAj43Xyj-34">
          <mxGeometry x="-0.4188" y="-2" relative="1" as="geometry">
            <mxPoint as="offset" />
          </mxGeometry>
        </mxCell>
        <mxCell id="3n1f7qn3-GTYBAj43Xyj-36" style="edgeStyle=orthogonalEdgeStyle;orthogonalLoop=1;jettySize=auto;html=1;curved=1;endArrow=block;endFill=1;entryX=0.75;entryY=0;entryDx=0;entryDy=0;exitX=1;exitY=0.5;exitDx=0;exitDy=0;" edge="1" parent="1" source="3n1f7qn3-GTYBAj43Xyj-24" target="3n1f7qn3-GTYBAj43Xyj-26">
          <mxGeometry relative="1" as="geometry">
            <mxPoint x="461" y="650" as="sourcePoint" />
            <mxPoint x="310" y="787" as="targetPoint" />
          </mxGeometry>
        </mxCell>
        <mxCell id="3n1f7qn3-GTYBAj43Xyj-37" value="Place order / manage account" style="edgeLabel;html=1;align=center;verticalAlign=middle;resizable=0;points=[];" connectable="0" vertex="1" parent="3n1f7qn3-GTYBAj43Xyj-36">
          <mxGeometry x="-0.4188" y="-2" relative="1" as="geometry">
            <mxPoint as="offset" />
          </mxGeometry>
        </mxCell>
        <mxCell id="3n1f7qn3-GTYBAj43Xyj-38" style="edgeStyle=orthogonalEdgeStyle;orthogonalLoop=1;jettySize=auto;html=1;curved=1;endArrow=block;endFill=1;entryX=1;entryY=1;entryDx=0;entryDy=0;exitX=0.25;exitY=0;exitDx=0;exitDy=0;" edge="1" parent="1" source="3n1f7qn3-GTYBAj43Xyj-26" target="3n1f7qn3-GTYBAj43Xyj-24">
          <mxGeometry relative="1" as="geometry">
            <mxPoint x="200" y="860" as="sourcePoint" />
            <mxPoint x="320" y="1000" as="targetPoint" />
            <Array as="points">
              <mxPoint x="300" y="780" />
              <mxPoint x="320" y="780" />
              <mxPoint x="320" y="760" />
              <mxPoint x="228" y="760" />
            </Array>
          </mxGeometry>
        </mxCell>
        <mxCell id="3n1f7qn3-GTYBAj43Xyj-39" value="Place order / manage account" style="edgeLabel;html=1;align=center;verticalAlign=middle;resizable=0;points=[];" connectable="0" vertex="1" parent="3n1f7qn3-GTYBAj43Xyj-38">
          <mxGeometry x="-0.4188" y="-2" relative="1" as="geometry">
            <mxPoint as="offset" />
          </mxGeometry>
        </mxCell>
        <mxCell id="3n1f7qn3-GTYBAj43Xyj-40" style="edgeStyle=orthogonalEdgeStyle;orthogonalLoop=1;jettySize=auto;html=1;curved=1;endArrow=block;endFill=1;entryX=0.349;entryY=0.995;entryDx=0;entryDy=0;exitX=0.75;exitY=0;exitDx=0;exitDy=0;entryPerimeter=0;" edge="1" parent="1" source="3n1f7qn3-GTYBAj43Xyj-33" target="3n1f7qn3-GTYBAj43Xyj-24">
          <mxGeometry relative="1" as="geometry">
            <mxPoint x="211" y="690" as="sourcePoint" />
            <mxPoint x="60" y="827" as="targetPoint" />
          </mxGeometry>
        </mxCell>
        <mxCell id="3n1f7qn3-GTYBAj43Xyj-41" value="Transaction Confirmations" style="edgeLabel;html=1;align=center;verticalAlign=middle;resizable=0;points=[];" connectable="0" vertex="1" parent="3n1f7qn3-GTYBAj43Xyj-40">
          <mxGeometry x="-0.4188" y="-2" relative="1" as="geometry">
            <mxPoint as="offset" />
          </mxGeometry>
        </mxCell>
        <mxCell id="3n1f7qn3-GTYBAj43Xyj-43" value="&lt;h1&gt;Level 0 DFD&lt;/h1&gt;&lt;p&gt;&lt;br&gt;&lt;/p&gt;" style="text;html=1;strokeColor=none;fillColor=none;spacing=5;spacingTop=-20;whiteSpace=wrap;overflow=hidden;rounded=0;" vertex="1" parent="1">
          <mxGeometry x="-130" y="310" width="190" height="70" as="geometry" />
        </mxCell>
      </root>
    </mxGraphModel>
  </diagram>
</mxfile>
